<?xml version="1.0" encoding="utf-8"?>
<!-- Generator: Adobe Illustrator 21.1.0, SVG Export Plug-In . SVG Version: 6.00 Build 0)  -->
<svg version="1.1" id="Layer_1" xmlns="http://www.w3.org/2000/svg" xmlns:xlink="http://www.w3.org/1999/xlink" x="0px" y="0px"
	 width="612px" height="792px" viewBox="0 0 612 792" style="enable-background:new 0 0 612 792;" xml:space="preserve">
<g>
	<path style="fill:none;stroke:#000000;stroke-width:0.1;" d="M205.3,127h7.1v21.3h26.5V127h7.1v51.6h-7.1v-24.2h-26.5v24.2h-7.1
		V127z"/>
	<path style="fill:none;stroke:#000000;stroke-width:0.1;" d="M279.5,142c2.5,1.3,4.4,2.9,5.7,4.9c1.3,1.9,2.1,4.1,2.5,6.6
		c0.4,1.7,0.6,4.5,0.6,8.3h-27.4c0.1,3.8,1,6.9,2.7,9.2s4.3,3.5,7.8,3.5c3.3,0,5.9-1.1,7.8-3.3c1.1-1.3,1.9-2.7,2.3-4.4h6.2
		c-0.2,1.4-0.7,2.9-1.6,4.6c-0.9,1.7-2,3.1-3.1,4.2c-1.9,1.9-4.3,3.1-7.1,3.8c-1.5,0.4-3.2,0.6-5.1,0.6c-4.7,0-8.6-1.7-11.8-5.1
		s-4.9-8.2-4.9-14.3c0-6,1.6-11,4.9-14.7c3.3-3.8,7.5-5.7,12.8-5.7C274.4,140.1,277,140.7,279.5,142z M281.8,156.8
		c-0.3-2.7-0.8-4.9-1.8-6.6c-1.7-3-4.6-4.6-8.6-4.6c-2.9,0-5.3,1-7.3,3.1c-2,2.1-3,4.8-3.1,8H281.8z"/>
	<path style="fill:none;stroke:#000000;stroke-width:0.1;" d="M296.5,127h6.3v51.6h-6.3V127z"/>
	<path style="fill:none;stroke:#000000;stroke-width:0.1;" d="M312.4,127h6.3v51.6h-6.3V127z"/>
	<path style="fill:none;stroke:#000000;stroke-width:0.1;" d="M355.5,144.7c3.3,3.2,5,8,5,14.3c0,6.1-1.5,11.1-4.4,15
		c-2.9,4-7.5,5.9-13.6,5.9c-5.1,0-9.2-1.8-12.3-5.3c-3-3.5-4.5-8.2-4.5-14.1c0-6.3,1.6-11.4,4.8-15.1c3.2-3.7,7.5-5.6,12.8-5.6
		C348.1,139.9,352.2,141.5,355.5,144.7z M351.6,169.7c1.5-3.2,2.3-6.7,2.3-10.6c0-3.5-0.6-6.4-1.7-8.6c-1.8-3.5-4.8-5.2-9.1-5.2
		c-3.8,0-6.6,1.5-8.3,4.4c-1.7,2.9-2.6,6.5-2.6,10.7c0,4,0.9,7.3,2.6,10c1.7,2.7,4.5,4,8.3,4C347.2,174.5,350.1,172.9,351.6,169.7z"
		/>
</g>
</svg>
