<?xml version="1.0" encoding="utf-8"?>
<!-- Generator: Adobe Illustrator 21.1.0, SVG Export Plug-In . SVG Version: 6.00 Build 0)  -->
<svg version="1.1" id="Layer_1" xmlns="http://www.w3.org/2000/svg" xmlns:xlink="http://www.w3.org/1999/xlink" x="0px" y="0px"
	 width="612px" height="792px" viewBox="0 0 612 792" style="enable-background:new 0 0 612 792;" xml:space="preserve">
<path style="fill:none;stroke:#000000;stroke-miterlimit:10;" d="M146.1,108.5c51.1-1.8,102.6-3.5,153,4.9
	c6.6,1.1,15.1,5.7,12.6,11.9c-1.1,2.5-3.8,3.9-6.2,5c-28.4,12.9-59.1,21-90.2,23.7c-10,0.9-23,4-23.5,14
	c-0.4,9.3,10.8,14.1,19.9,15.7c38.5,6.8,78.7,3.6,116.2,14.5c12.9,3.7,27.3,11.7,27.9,25.1c0.6,12.5-11.5,22-23.3,26
	c-37.8,12.9-78.4-5.8-118.3-8c-7.6-0.4-15.4-0.2-22.2,3.2s-12.2,10.5-11.3,18.1c1.2,10.6,12.9,16.2,23.1,19.2
	c41.9,12,86.3,11.4,129.1,19.5c20.3,3.8,53.9,12.8,53.9,27.4s-28.5,26.2-36.2,27.8c-58,11.7-100.9,5.2-158.9,16.9"/>
</svg>
