<?xml version="1.0" encoding="utf-8"?>
<!-- Generator: Adobe Illustrator 20.1.0, SVG Export Plug-In . SVG Version: 6.00 Build 0)  -->
<svg version="1.1" id="Calque_2" xmlns="http://www.w3.org/2000/svg" xmlns:xlink="http://www.w3.org/1999/xlink" x="0px" y="0px"
	 viewBox="0 0 841.9 1190.6" style="enable-background:new 0 0 841.9 1190.6;" xml:space="preserve">
<path style="fill:none;stroke:#000000;stroke-width:1;" d="M368.5,182c0,0,42-13,55-14.5s91-12,118.5-45.5c19-26.2,28.5-24.5,37.8-21s22,17.3,28.2,48
	c5.5,26.9,3.7,69-12.2,103.2c0,0,48.2-16.7,67.2-36.9s62.5-82,80.8-77.2c20.5,3.8,51.2,49.5,27.2,140.5c-4,21.2-71,84-90.5,105.5
	c0,0,50.8,44.7,67.5,143.3S776,762,774.7,776c-1.3,14-3.3,77.3-38,79.3c-34.7,2-39.3-68-39.3-68s-9.3-172.7-24-205.3
	c-14.7-32.7-29.3-79.3-129.3-56c-20,4-41.3,10-74.7,26.7c-0.7,16-15.3,29.3-15.3,29.3s-12.7,23.3-13.3,35.3c-0.7,12-12,96-12,96
	s13.3,33-2.7,143.2l21-59l21.5-27c0,0,2-17.5,5.5-20s-1-27,16-43.5c16-22,47.5-49,90.5-32s53.5,58.5,53.5,58.5s12.5,36-6,72
	c5,18.5-11,52-23,65s-26,23.5-34.5,36s-90,142-123,172c-14,31.5-47.5,93.5-103,89c-35.2-7-60.1-18.7-76.8-49.3
	c-17.3-31.5-25.2-74.1-23.7-115.2c-22-28.5-22.5-66.5-22.5-66.5s-12-0.5-21-10.5c-5,10-10,15.5-25,17c2.5,20,2.5,60-12.5,88
	c11.5,32,3.5,117-32.5,125c-22.2,3.2-35-37.8-35-37.8s-13.2-68.9-15-80.8c-2-13.2-4-44.5-4-44.5s-5.5-9.2-7-15.2s-9.8-47-9.8-71.8
	S53,799,64.5,735.5c-10-29.5-10.5-76-10.5-76s2.5-58,7.5-81.5s16-73.5,16-73.5s1-40.5,8-63.5c2.5-21.5,9-54.5,21.5-72
	s19.5-34,21.5-39.5s5.5-23.5,17-34c7-14.5,40-88,69.5-121.5s54-48.5,54-48.5s54.5-23,64-34.5c33.5-38,54.5-68.5,66.5-68
	c10.8,2.6,39.5,24.5,21.4,95.5c-3.3,10.1-10.4,19-17.9,23.5C385.5,162,368.5,182,368.5,182"/>
</svg>
